<svg xmlns="http://www.w3.org/2000/svg" width="50" height="50" viewBox="0 0 50 50">
    <!-- Outer Circle -->
    <circle cx="25" cy="25" r="25" fill="#C0C0C0"></circle>

    <!-- Head -->
    <circle cx="25" cy="15" r="10" fill="#808080"></circle>

    <!-- Hair -->
    <path d="M17 12c2-7 12-6 16 0-4-6-12-6-16 1z" fill="#606060"></path>

    <!-- Eyes -->
    <circle cx="22" cy="14" r="1" fill="#606060"></circle>
    <circle cx="28" cy="14" r="1" fill="#606060"></circle>

    <!-- Mouth -->
    <path d="M22 18c1 2 5 2 6 0" fill="none" stroke="#606060" stroke-width="0.5"></path>

    <!-- Body -->
    <path d="M14 35c0-6 6-12 11-12s11 6 11 12v8H14v-8z" fill="#808080"></path>

    <!-- T-shirt Details -->
    <path d="M14 43c0 0 6-8 11-8s11 8 11 8H14z" fill="#606060"></path>
    <line x1="19" y1="35" x2="19" y2="43" stroke="#707070" stroke-width="0.5"></line>
    <line x1="31" y1="35" x2="31" y2="43" stroke="#707070" stroke-width="0.5"></line>
</svg>
